<?xml version="1.0" encoding="UTF-8"?>
<!-- Generator: Adobe Illustrator 20.0.0, SVG Export Plug-In . SVG Version: 6.00 Build 0)  -->
<svg version="1.1" id="Ebene_1" xmlns="http://www.w3.org/2000/svg" xmlns:xlink="http://www.w3.org/1999/xlink" x="0px" y="0px" viewBox="0 0 1024.9 311.4" style="enable-background:new 0 0 1024.9 311.4;" xml:space="preserve">
<style type="text/css">
	.st0{fill:#3C3C3B;}
	.st1{fill:none;}
	.st2{fill:#FFFFFF;}
	.st3{fill:#D71016;}
	.st4{fill:none;stroke:#3C3C3B;stroke-width:6.8924;stroke-linecap:round;stroke-miterlimit:10;}
</style>
<g>
	<path class="st0" d="M368.6,242.7l-21.4-163c-1.9-14.5-15.4-24.9-29.9-23l-129.2,17l47.5-61.8c2.5-3.2,1.9-7.9-1.4-10.4   c-3.2-2.5-7.9-1.9-10.4,1.4l-54,70.3l-70.3-54c-3.2-2.5-7.9-1.9-10.4,1.4c-2.5,3.2-1.9,7.9,1.4,10.4l61.8,47.5l-129.2,17   c-14.5,1.9-24.9,15.4-23,29.9l21.4,163c1.9,14.5,15.4,24.9,29.9,23l294.1-38.6C360.2,270.7,370.5,257.2,368.6,242.7z"/>
	<g>
		<path class="st3" d="M938.9,140.6l59.7,62c1.5,1.6,0.6,4.9-2,7.3l-35.7,34.4c-2.6,2.5-5.9,3.2-7.4,1.7l-59.7-62"/>
		<path class="st2" d="M893.9,184.2l-43.3-44.9c-1.1-1.1,0.1-4.1,2.7-6.6l35.7-34.4c2.6-2.5,5.6-3.6,6.7-2.5l43.3,44.9"/>
		<line class="st4" x1="936.7" y1="142.8" x2="896.5" y2="181.5"/>
		<path class="st0" d="M1024.4,272.7l-24.8-25.8l1.5-1.4c2.5-2.4,2.6-6.3,0.2-8.8l-12.9-13.3c-0.1-0.1-0.2-0.2-0.4-0.3l11.3-10.9    c1.7-1.7,2.7-4,2.8-6.4c0-2.4-0.9-4.7-2.5-6.5L899.4,95.3c-1.7-1.7-4-2.7-6.4-2.8c-2.4-0.1-4.7,0.9-6.5,2.5l-16,15.4l-28.9-30    l17.6-16.9c1.4-1.3,1.4-3.5,0.1-4.9c-1.3-1.4-3.5-1.4-4.9-0.1l-40.1,38.6c-1.4,1.3-1.4,3.5-0.1,4.9c0.7,0.7,1.6,1.1,2.5,1.1    c0.9,0,1.7-0.3,2.4-1l17.6-16.9l28.9,30l-16,15.4c-1.7,1.7-2.7,4-2.8,6.4c0,2.4,0.9,4.7,2.5,6.5l100.1,103.9    c1.7,1.7,4,2.7,6.4,2.8c0.1,0,0.1,0,0.2,0c2.4,0,4.6-0.9,6.3-2.5l11.3-10.9c0.1,0.1,0.2,0.3,0.3,0.4l12.9,13.3    c1.2,1.3,2.9,1.9,4.5,1.9c1.6,0,3.1-0.6,4.3-1.7l1.5-1.4l24.8,25.8c0.3,0.4,0.8,0.5,1.2,0.5c0.4,0,0.9-0.2,1.2-0.5    C1025,274.4,1025,273.4,1024.4,272.7z M957.6,242.7c-0.4,0.4-1,0.7-1.6,0.6c-0.6,0-1.2-0.2-1.6-0.7L854.3,138.7    c-0.4-0.4-0.6-1-0.6-1.6c0-0.6,0.2-1.2,0.7-1.6l36.9-35.6c0.4-0.4,1-0.6,1.5-0.6c0.6,0,1.2,0.2,1.6,0.7l55.2,57.4l-23,22.2    c-1.4,1.3-1.4,3.5-0.1,4.9c0.7,0.7,1.6,1.1,2.5,1.1c0.9,0,1.7-0.3,2.4-1l23-22.2l7.2,7.4L946.9,184c-1.4,1.3-1.4,3.5-0.1,4.9    c0.7,0.7,1.6,1.1,2.5,1.1c0.9,0,1.7-0.3,2.4-1l14.8-14.2l7.2,7.4l-23,22.2c-1.4,1.3-1.4,3.5-0.1,4.9c0.7,0.7,1.6,1.1,2.5,1.1    c0.9,0,1.7-0.3,2.4-1l23-22.2l16.2,16.8c0.8,0.9,0.8,2.3-0.1,3.1L957.6,242.7z"/>
	</g>
	<g>
		<g>
			<path class="st2" d="M57.7,206c-4.3,0.6-8.1,1.3-11.4,2.2c-1.2,2.2-2.2,4.3-3,6.3c-0.9,1.9-1.7,3.8-2.5,5.7c-0.5,1-1,1.6-1.7,1.7     c-0.7,0.2-1.7,0-3-0.4c-0.7-0.3-1.6-0.6-2.5-1c-0.9-0.4-1.8-0.8-2.7-1.3c-0.7-0.5-1.3-0.8-1.8-1.2c-0.5-0.3-0.9-0.7-1.2-1.2     c-0.3-0.5-0.4-1-0.5-1.8c0-0.7,0.1-1.7,0.5-2.9c1.4-4,3.2-8.6,5.4-14c2.2-5.4,4.6-10.9,7.2-16.6c2.6-5.7,5.2-11.3,7.9-16.9     c2.7-5.6,5.2-10.5,7.6-14.8c0.9-1.6,2-2.8,3.4-3.8c1.4-1,3.4-1.4,6.1-1.1c2.4,0.1,4.5,0.3,6.3,0.6c1.8,0.3,3.5,0.6,5.1,0.9     c1.5,0.3,2.9,0.7,4.2,1.1c1.3,0.4,2.6,0.8,3.9,1.1c1.8,0.6,2.9,1.5,3.4,2.5c0.5,1,0.6,2.4,0.5,4.1c-0.3,4.1-0.6,8.8-0.9,14.1     c-0.2,5.3-0.4,10.8-0.5,16.6c-0.1,5.8-0.2,11.5-0.2,17.3c0,5.8,0,11.2,0,16.1c0,1-0.2,1.8-0.6,2.2c-0.4,0.4-1.4,0.6-2.9,0.6     c-1.5,0-2.9,0-4.1-0.1c-1.3-0.1-2.6-0.4-3.9-0.8c-1.4-0.4-2.3-0.9-2.9-1.6c-0.5-0.6-0.9-1.8-1.2-3.4c-0.2-1.7-0.4-3.5-0.6-5.5     c-0.2-2-0.3-4.2-0.5-6.5C66.3,204.8,62,205.4,57.7,206z M62,191.1c2.6-0.3,5.3-0.5,7.9-0.7c-0.1-4.7-0.2-9.4-0.3-14.1     c-0.1-4.7,0-9.3,0.1-13.9c-2.3,4.2-4.8,8.9-7.5,13.9c-2.7,5.1-5.4,10.4-8.1,15.8C56.7,191.7,59.3,191.4,62,191.1z"/>
		</g>
		<g>
			<path class="st2" d="M141.3,170c1.7-7.3,3.4-14,5.1-20.2c0.5-1.7,1.2-2.7,2.1-3.1c0.9-0.4,2.3-0.4,4.2,0.1     c0.9,0.2,1.6,0.4,2.3,0.6c0.7,0.2,1.4,0.4,2,0.7c0.7,0.3,1.4,0.6,2.1,1c0.7,0.4,1.6,0.9,2.6,1.6c1.7,1,2.6,2.1,2.8,3.2     c0.2,1.1,0.1,2.3-0.4,3.8c-1.3,4.3-2.7,9.1-4.1,14.5c-1.4,5.4-2.9,10.9-4.3,16.5c-1.4,5.6-2.8,11-4.1,16.4     c-1.3,5.3-2.4,10-3.3,14c-0.3,2.2-2.1,2.9-5.2,2.2c-2.6-0.5-5.4-1.3-8.1-2.2c-2.5-1-4.3-2.7-5.4-5.2c-0.8-1.8-1.6-3.9-2.5-6.2     c-0.8-2.4-1.7-4.9-2.5-7.6c-0.9-2.7-1.7-5.6-2.6-8.6c-0.9-3-1.7-5.9-2.4-8.9c-0.6,3.6-1.3,7.1-1.9,10.7c-0.7,3.6-1.3,7-1.9,10.2     c-0.6,3.3-1.2,6.3-1.6,9.1c-0.5,2.8-0.9,5.2-1.2,7.3c-0.2,1-0.6,1.6-1.1,1.9c-0.5,0.3-1.5,0.2-3-0.2c-1.4-0.3-2.8-0.7-4.2-1.1     c-1.4-0.4-2.8-1-4.1-1.8c-1.3-0.6-2.1-1.4-2.5-2.2c-0.4-0.8-0.6-2-0.5-3.5c0.1-1.6,0.3-3.8,0.6-6.7c0.3-2.9,0.6-6.1,1-9.8     c0.4-3.7,0.9-7.6,1.5-11.7c0.5-4.2,1.1-8.3,1.8-12.5c0.6-4.1,1.3-8.1,1.9-12c0.7-3.9,1.3-7.3,1.9-10.3c0.4-1.7,1.1-2.8,2.2-3.2     c1-0.4,2.4-0.4,4.2,0c2.1,0.6,4.2,1.3,6.2,1.9c2,0.6,4.1,1.5,6.3,2.5c1.8,0.7,3.1,1.7,3.8,2.8c0.7,1.1,1.3,2.8,1.6,5     c0.3,1.7,0.7,3.8,1.1,6.4c0.5,2.6,1,5.4,1.6,8.4c0.6,3,1.2,6.1,1.8,9.3c0.6,3.2,1.3,6.3,1.9,9.2     C138.2,184.7,139.6,177.3,141.3,170z"/>
		</g>
		<g>
			<path class="st2" d="M195.9,154.8c0.3,0.8,0.3,2-0.1,3.5c-0.8,2.6-1.7,5.6-2.6,8.9c-1,3.3-1.9,6.9-2.9,10.6     c-1,3.7-1.9,7.5-2.8,11.4c-0.9,3.9-1.8,7.7-2.7,11.4c-0.9,3.7-1.7,7.2-2.4,10.5c-0.7,3.3-1.3,6.3-1.9,8.9c-0.3,1-0.7,1.6-1.2,1.9     c-0.5,0.3-1.5,0.3-3-0.1c-1.5-0.4-2.9-0.8-4.3-1.2c-1.4-0.4-2.6-0.9-3.8-1.6c-1.3-0.6-2.2-1.4-2.6-2.2c-0.4-0.8-0.6-2-0.4-3.5     c0.1-2,0.4-4.6,0.7-7.8c0.4-3.2,0.8-6.7,1.4-10.5c0.5-3.8,1.2-7.8,1.9-12c0.7-4.2,1.4-8.3,2.1-12.4c0.7-4,1.5-7.8,2.2-11.4     c0.7-3.6,1.4-6.8,2.1-9.5c0.5-1.7,1.2-2.7,2.1-3.1c0.9-0.4,2.2-0.3,4,0.2c1.8,0.5,3.7,1.2,5.8,2.1c2.1,0.9,3.9,1.9,5.4,2.9     C194.7,153,195.6,154,195.9,154.8z"/>
		</g>
		<g>
			<path class="st2" d="M218.1,190c-0.7,3.9-1.3,7.7-1.9,11.3c-0.6,3.6-1.1,7-1.5,10.2c-0.4,3.2-0.8,6-1,8.5c-0.2,1-0.6,1.7-1.1,2     c-0.5,0.3-1.5,0.3-2.9,0c-1.3-0.3-2.7-0.6-4-1.1c-1.4-0.4-2.6-0.9-3.8-1.5c-1.4-0.7-2.4-1.4-2.9-2.2c-0.5-0.8-0.7-2-0.6-3.5     c0-2.2,0.1-5,0.3-8.2c0.2-3.3,0.5-6.8,0.9-10.6c0.4-3.8,0.8-7.7,1.3-11.8c0.5-4.1,1-8.1,1.5-12.1c0.5-4,1.1-7.7,1.6-11.3     c0.5-3.5,1.1-6.7,1.6-9.4c0.5-2,1.3-3.2,2.2-3.7c1-0.5,2.4-0.6,4.4-0.3c3.1,0.5,5.7,1,7.9,1.6c2.2,0.6,4.3,1.3,6.5,2.1     c1.4,0.5,2.5,1.1,3.3,1.7c0.8,0.6,1.4,1.3,1.9,2c0.5,0.7,0.8,1.5,1,2.4c0.2,0.9,0.4,1.8,0.6,2.9c0,0.5,0,1.1,0.1,1.9     c0.1,0.7,0.3,2,0.5,3.8c0.3,1.8,0.6,4.5,1.2,7.9c0.5,3.4,1.2,8.1,2.2,14c0.9-2.1,2-4.3,3.2-6.8c1.2-2.5,2.5-5,3.8-7.6     c1.3-2.6,2.7-5.2,4.1-7.8c1.4-2.6,2.8-5,4.1-7.3c1.3-2.6,2.5-4.8,3.5-6.5c1-1.7,2-3,3-3.9c1-0.9,2.2-1.4,3.5-1.5     c1.3-0.1,2.9,0.1,5,0.7c2.4,0.6,4.9,1.4,7.5,2.2c2.6,0.9,5.2,1.9,7.7,3c1.7,0.8,2.7,1.7,3.2,2.8c0.4,1.1,0.3,2.5-0.3,4.4     c-0.9,2.7-1.8,5.8-2.9,9.3c-1.1,3.5-2.2,7.2-3.3,11.1c-1.1,3.9-2.2,7.8-3.4,11.7c-1.1,4-2.2,7.8-3.2,11.4c-1,3.6-1.9,7-2.7,10     c-0.8,3.1-1.4,5.6-1.9,7.6c-0.4,1-0.9,1.8-1.4,2.2c-0.5,0.5-1.5,0.5-3,0.2c-1.3-0.3-2.7-0.6-4.1-1c-1.4-0.4-2.6-0.9-3.6-1.5     c-1.3-0.6-2.2-1.4-2.6-2.2c-0.4-0.9-0.5-2-0.2-3.5c0.2-1.7,0.6-4,1.1-6.7c0.5-2.7,1.1-5.8,1.8-9.1c0.7-3.3,1.5-6.8,2.3-10.4     c0.8-3.6,1.7-7.1,2.7-10.5c-1.7,3-3.6,6.2-5.5,9.8c-1.9,3.5-3.8,7-5.6,10.4c-1.8,3.4-3.5,6.6-5,9.6c-1.5,3-2.8,5.5-3.7,7.6     c-0.3,0.6-0.5,1.1-0.7,1.5c-0.2,0.4-0.4,0.6-0.7,0.8c-0.3,0.2-0.7,0.3-1.1,0.3c-0.5,0-1.1,0-1.8-0.2c-2.3-0.5-4.3-1-6-1.6     c-0.6-0.2-1.2-0.5-1.6-0.7c-0.5-0.3-0.9-0.6-1.2-1c-0.3-0.4-0.6-1-0.9-1.6c-0.3-0.6-0.5-1.4-0.8-2.4c-1.2-4.1-2.3-8.9-3.3-14.3     c-1.1-5.4-2-11-2.9-16.8C219.5,182.2,218.8,186.1,218.1,190z"/>
		</g>
		<g>
			<path class="st2" d="M302.3,149.6c3-0.7,6.2-1.3,9.5-1.9c3.3-0.6,6.7-1.1,10.2-1.5c3.5-0.4,7-0.7,10.4-0.8     c3.3-0.1,5.4,1.2,6.3,3.8c0.7,1.4,1.3,2.6,1.6,3.8c0.3,1.1,0.6,2.3,0.9,3.7c0.2,1.5,0.1,2.5-0.3,3c-0.5,0.5-1.5,0.9-3.2,1.1     c-3.5,0.4-7,0.8-10.7,1.2c-3.7,0.4-7.6,0.9-11.7,1.5c-0.9,2.6-1.7,5.3-2.4,8.1c-0.7,2.8-1.6,5.7-2.5,8.8c1.7-0.2,3.5-0.4,5.2-0.5     c1.7-0.1,3.6-0.2,5.5-0.3c1.6-0.1,2.9,0.1,3.8,0.4c0.9,0.3,1.7,1.1,2.3,2.2c0.7,1.2,1.2,2.3,1.6,3.4c0.4,1.1,0.7,2.3,1,3.4     c0.5,1.3,0.5,2.2,0.1,2.7c-0.4,0.5-1.4,0.9-3,1.2c-3.5,0.6-7,1.2-10.6,1.8c-3.6,0.6-7.1,1.2-10.4,1.9c-0.5,1.8-0.9,3.6-1.3,5.2     c-0.4,1.6-0.8,3.3-1.3,4.9c2.7-0.5,5.3-0.8,7.7-1.1c2.4-0.3,5.1-0.5,8-0.7c1.6-0.1,2.9,0,3.8,0.3c0.9,0.3,1.7,1,2.3,2.1     c0.7,1.2,1.2,2.2,1.6,3.2c0.4,1,0.8,2,1.3,3.1c0.3,1.2,0.3,1.9,0,2.4c-0.3,0.4-1.2,0.8-2.8,1.1c-3.7,0.7-7.4,1.4-11.2,2.2     c-3.8,0.7-7.4,1.4-10.9,2.1c-2.3,0.6-4,0.7-5.2,0.4c-1.2-0.3-2.2-0.8-3.1-1.3c-1-0.6-1.9-1.3-2.8-1.9c-0.9-0.7-1.9-1.5-3.2-2.5     c-1-0.8-1.7-1.8-2.3-2.9c-0.5-1.1-0.8-2.4-0.6-4l8.2-57.4C296.5,151,299.3,150.3,302.3,149.6z"/>
		</g>
		<g>
			<path class="st0" d="M344.2,173.5c2.6-0.4,5.4-0.7,8.4-1c3-0.3,6-0.5,9.1-0.7c3.1-0.2,6.1-0.3,8.9-0.3c1.3,0,2.5,0.3,3.5,1     c1,0.6,2,1.6,2.9,2.9c0.9,1.5,1.6,2.9,2.1,4.1c0.5,1.3,1.1,2.5,1.7,3.6c0.6,1.4,0.7,2.4,0.3,2.9c-0.4,0.5-1.3,0.7-2.8,0.8     c-5,0.3-10.1,0.8-15.2,1.3c-5.2,0.5-9.9,1.4-14.3,2.5c-1.2,0.3-2.3,0.3-3.4-0.1c-1-0.4-2.2-1.3-3.4-2.6c-1.3-1.3-2.3-2.6-3.2-3.8     c-0.9-1.2-1.7-2.5-2.5-3.8c-2.1-3.1-1.7-4.9,1.1-5.4C339.3,174.3,341.6,173.9,344.2,173.5z"/>
		</g>
		<g>
			<path class="st3" d="M392.6,227.7c-2.5,0-5.4-0.4-8.5-1.1c-2.6-0.6-5-1.4-7-2.4c-2-1-3.8-2.2-5.3-3.5c-1.6-1.3-2.9-2.8-3.9-4.4     c-1-1.4-1.8-2.9-2.5-4.5c-1.2-2.4-1.9-5-2.1-7.6c-0.2-2.4-0.1-5.1,0.3-8.1l0-0.2c0.5-3,1.6-5.4,3.2-7.1c1.4-1.5,3.4-2.3,5.5-2.3     c1.4,0,2.9,0.4,4.6,1.1c7.7,3.1,12.1,7.5,13.2,13.1c0.2-0.6,0.4-1.3,0.7-2c1-3.3,2-7.1,3-11.3c1-4.3,1.9-8.9,2.7-13.4     c0.9-4.6,1.6-9.1,2.4-13.6c0.7-4.6,1.3-8.5,1.8-12.1l0-0.1l0-0.1c0.9-4.4,3.2-6.2,5.1-6.9c1-0.4,2.2-0.6,3.4-0.6     c1.2,0,2.4,0.2,3.8,0.5c1.9,0.5,4,1.2,6.3,2.1c2.4,0.9,4.6,2,6.5,3.2l0.1,0.1c1.1,0.7,2,1.4,2.6,2c1,0.9,1.7,1.9,2.2,3     c0.5,1.2,0.8,2.5,0.7,3.8c0,0.8-0.2,1.7-0.4,2.7c-1.4,8.5-3,16.3-4.6,23.3c-1.6,7.1-3.5,13.5-5.4,18.9c-2,5.6-4.2,10.4-6.6,14.3     c-2.6,4.2-5.5,7.4-8.7,9.4l-0.1,0.1c-2.5,1.5-5.5,2.6-8.9,3.3C395.6,227.6,394.2,227.7,392.6,227.7z"/>
			<path class="st2" d="M409.2,145.7c0.7,0,1.6,0.1,2.6,0.4c1.7,0.5,3.6,1.1,5.7,1.9c2.1,0.8,4,1.7,5.7,2.8c0.9,0.6,1.5,1.1,2,1.5     c0.5,0.4,0.8,0.9,1,1.3c0.2,0.5,0.3,1,0.3,1.5c0,0.5-0.1,1.2-0.3,1.9c-1.4,8.5-3,16.2-4.6,23.1c-1.6,7-3.4,13.1-5.2,18.4     c-1.9,5.3-3.9,9.7-6.1,13.3c-2.2,3.6-4.5,6.2-7.1,7.8c-2,1.2-4.4,2.1-7.2,2.6c-1,0.2-2.1,0.3-3.3,0.3c-2.1,0-4.6-0.3-7.4-0.9     c-2.2-0.5-4.2-1.2-5.8-2c-1.6-0.8-3.1-1.7-4.3-2.8c-1.2-1-2.2-2.2-3-3.4c-0.8-1.2-1.5-2.5-2.1-3.8c-0.9-1.9-1.5-3.9-1.6-5.9     c-0.2-2-0.1-4.4,0.3-7c0.3-2,1-3.5,1.9-4.4c0.5-0.5,1.1-0.7,1.8-0.7c0.7,0,1.6,0.2,2.6,0.7c6.7,2.7,10.2,6.3,10.4,10.8     c0.2,2.9,0.5,5,0.9,6.3c0.3,1.3,1.2,2,2.6,2.2c0,0,0.1,0,0.1,0c1.2,0,2.3-1,3.4-3c1.2-2.1,2.3-4.8,3.4-8.2     c1.1-3.4,2.1-7.3,3.1-11.7c1-4.4,1.9-8.9,2.8-13.6c0.9-4.6,1.7-9.2,2.4-13.7c0.7-4.5,1.3-8.6,1.9-12.2c0.3-1.7,1-2.8,1.9-3.2     C408.1,145.8,408.6,145.7,409.2,145.7 M409.2,135.5c-1.9,0-3.6,0.3-5.3,1c-2.5,1-6.8,3.7-8.2,10.7l-0.1,0.3l0,0.3     c-0.5,3.5-1.1,7.6-1.8,12c-0.7,4.4-1.5,8.9-2.3,13.4c-0.8,4.5-1.7,8.9-2.7,13.2c-0.2,0.7-0.3,1.4-0.5,2.1c-2.3-2-5.4-3.9-9.4-5.5     c-2.3-1-4.4-1.5-6.6-1.5c-3.6,0-6.8,1.4-9.2,3.9c-2.3,2.4-3.8,5.7-4.5,9.7l0,0.2l0,0.2c-0.4,3.4-0.5,6.4-0.3,9.2     c0.3,3.2,1.1,6.3,2.5,9.3c0.8,1.8,1.8,3.5,2.9,5.2c1.3,2,3,3.8,4.9,5.5c1.9,1.6,4,3,6.4,4.2c2.3,1.1,5,2.1,8,2.8     c3.6,0.8,6.7,1.2,9.7,1.2c1.8,0,3.6-0.2,5.3-0.5c4-0.8,7.5-2.1,10.5-3.9l0.1-0.1l0.1-0.1c3.8-2.4,7.3-6.2,10.3-11.1     c2.6-4.2,4.9-9.3,7-15.2c2-5.6,3.9-12.2,5.5-19.5c1.6-7.1,3.2-14.9,4.7-23.5c0.3-1.2,0.4-2.3,0.5-3.4c0.1-2.2-0.3-4.2-1.1-6.1     c-0.8-1.8-1.9-3.3-3.4-4.7c-0.9-0.8-2-1.7-3.3-2.6l-0.1-0.1l-0.1-0.1c-2.2-1.4-4.7-2.6-7.4-3.6c-2.4-0.9-4.7-1.7-6.8-2.2l0,0l0,0     C412.5,135.7,410.8,135.5,409.2,135.5L409.2,135.5z"/>
		</g>
		<g>
			<path class="st3" d="M455.4,227.1c-0.9,0-1.8,0-2.7-0.1c-5.9-0.4-10.9-1.7-14.9-3.9c-1.8-1-3.4-2.1-4.9-3.5     c-1.7-1.5-3.2-3.3-4.4-5.3c-1.5-2.5-2.6-5.5-3.2-8.8c-0.6-3.1-0.9-6.5-0.9-10.2c0-3.5,0.2-7.3,0.7-11.2c0.5-3.8,1.1-7.8,1.9-11.8     c0.8-3.9,1.6-7.9,2.6-11.9c1-4,2-7.8,3-11.5c0.9-3.3,2.6-5.4,5.1-6.4c0.9-0.3,1.9-0.5,3-0.5c1.3,0,2.8,0.3,4.5,0.9     c2,0.6,3.9,1.4,5.7,2.3c1.8,0.9,3.6,2,5.3,3.3c4.8,3.5,6.7,8.5,5.1,14.1l0,0.1c-0.9,3-1.9,6.3-2.9,9.6c-1,3.4-1.9,6.9-2.8,10.4     c-0.8,3.4-1.6,6.9-2.1,10.1c-0.6,3.2-0.9,6.1-1,8.5c0,0.7-0.1,1.4,0,2c0.7-1.2,1.4-2.7,2-4.4c1.3-3.2,2.5-6.9,3.7-11.2     c1.2-4.3,2.3-8.8,3.4-13.4c1.1-4.7,2-9.3,2.9-13.7c0.8-4.4,1.6-8.4,2.3-11.9c0.5-5.2,4-6.8,5.5-7.3c1-0.3,2-0.4,3.2-0.4     c1.2,0,2.5,0.2,3.8,0.5c2,0.5,4.1,1.3,6.3,2.5c1.9,1,3.8,2,5.4,3l0.2,0.1c1.1,0.7,2,1.4,2.7,2.1c0.9,0.9,1.6,2,2.1,3.2     c0.4,1.2,0.6,2.5,0.5,3.8c-0.1,0.8-0.2,1.6-0.4,2.5c-1.7,8.2-3.5,15.9-5.3,22.8c-1.8,7-3.7,13.3-5.7,18.8     c-2.1,5.6-4.4,10.4-6.9,14.3c-2.7,4.2-5.9,7.4-9.4,9.4l-0.1,0.1l-0.2,0.1c-2.4,1.2-4.9,2-7.3,2.5     C459.2,226.9,457.4,227.1,455.4,227.1z"/>
			<path class="st2" d="M475.4,146.1c0.8,0,1.6,0.1,2.5,0.4c1.6,0.4,3.4,1.1,5.3,2.1c1.9,1,3.6,1.9,5.1,2.8c0.8,0.5,1.4,1,1.9,1.4     c0.4,0.4,0.7,0.9,0.9,1.3c0.2,0.5,0.2,1,0.2,1.5c-0.1,0.5-0.2,1.2-0.3,1.9c-1.7,8.2-3.5,15.8-5.2,22.7c-1.8,6.9-3.6,13-5.6,18.3     c-2,5.3-4.1,9.7-6.4,13.3c-2.3,3.6-4.9,6.2-7.7,7.8c-2,1-4,1.7-6,2c-1.4,0.3-2.9,0.4-4.5,0.4c-0.8,0-1.5,0-2.4-0.1     c-5.2-0.3-9.4-1.4-12.8-3.3c-1.4-0.8-2.8-1.8-4.1-2.9c-1.3-1.1-2.4-2.4-3.3-4.1c-1.2-2-2.1-4.4-2.6-7.2c-0.5-2.8-0.8-5.9-0.8-9.2     c0-3.3,0.2-6.9,0.7-10.6c0.5-3.7,1.1-7.5,1.8-11.4c0.7-3.9,1.6-7.7,2.5-11.6c1-3.9,1.9-7.7,3-11.4c0.5-1.7,1.1-2.7,2-3     c0.3-0.1,0.7-0.2,1.1-0.2c0.8,0,1.8,0.2,3,0.6c1.7,0.5,3.4,1.2,5,2c1.6,0.8,3.1,1.8,4.6,2.9c3.1,2.2,4.2,5.1,3.2,8.6     c-0.9,3-1.9,6.2-2.9,9.7c-1,3.5-1.9,7-2.8,10.6c-0.9,3.6-1.6,7.1-2.2,10.5c-0.6,3.4-1,6.4-1.1,9.2c-0.1,2.7,0,5,0.4,6.7     c0.4,1.8,1.3,2.9,2.5,3.2c0.3,0.1,0.5,0.1,0.8,0.1c1.3,0,2.5-0.8,3.8-2.4c1.5-1.9,2.9-4.5,4.3-7.9c1.4-3.4,2.6-7.3,3.9-11.7     c1.2-4.4,2.4-9,3.5-13.7c1.1-4.7,2-9.3,2.9-13.9c0.9-4.5,1.6-8.6,2.3-12.2c0.1-1.7,0.7-2.8,1.9-3.1     C474.2,146.2,474.8,146.1,475.4,146.1 M475.4,135.9c-1.6,0-3.2,0.2-4.6,0.7c-3.7,1.1-7.7,4.3-8.9,10c-0.8-0.8-1.7-1.6-2.7-2.3     c-1.9-1.4-3.9-2.6-6-3.7c-2.1-1.1-4.3-1.9-6.5-2.6c-2.2-0.7-4.2-1.1-6.1-1.1c-1.7,0-3.3,0.3-4.8,0.9c-2.8,1.1-6.5,3.7-8.2,9.8     c-1,3.7-2.1,7.7-3.1,11.6c-1,4-1.9,8.1-2.7,12.1c-0.8,4.1-1.4,8.1-1.9,12.1c-0.5,4.1-0.8,8.1-0.8,11.9c0,4,0.3,7.7,1,11.2     c0.8,3.9,2.1,7.4,3.8,10.4c1.5,2.6,3.3,4.8,5.4,6.6c1.8,1.5,3.7,2.9,5.7,4l0,0l0,0c4.6,2.6,10.4,4.1,17,4.5c1,0.1,2.1,0.1,3,0.1     c2.3,0,4.4-0.2,6.4-0.6c2.9-0.5,5.8-1.5,8.6-2.9l0.3-0.2l0.3-0.2c4.2-2.4,8-6.2,11.2-11.1c2.7-4.2,5.2-9.3,7.4-15.3     c2.1-5.6,4.1-12.1,5.9-19.3c1.8-7,3.6-14.7,5.3-23c0.3-1.1,0.4-2.1,0.5-3.1c0.2-2.2,0-4.2-0.8-6.2c-0.7-1.8-1.8-3.5-3.3-5     c-1-1-2.1-1.9-3.6-2.8l-0.2-0.1l-0.2-0.1c-1.7-1-3.7-2.1-5.7-3.1c-2.5-1.3-5-2.2-7.3-2.8C478.7,136.1,477,135.9,475.4,135.9     L475.4,135.9z"/>
		</g>
		<g>
			<path class="st3" d="M505.8,226.9c-1,0-2.2-0.2-3.5-0.5c-1.3-0.3-2.7-0.7-4.2-1.1c-1.8-0.5-3.6-1.2-5.3-2.2     c-2.2-1.1-3.7-2.6-4.6-4.3c-0.9-1.7-1.2-3.7-1-6.2c0.1-1.6,0.3-3.8,0.6-6.7c0.3-2.9,0.6-6.3,1.1-9.9c0.4-3.6,0.9-7.5,1.5-11.8     c0.6-4.2,1.2-8.4,1.8-12.6c0.6-4.2,1.3-8.3,2-12.1c0.7-3.9,1.3-7.4,2-10.5l0-0.1c1-4.2,3.4-6,5.2-6.8c1.1-0.5,2.4-0.7,3.7-0.7     c1.2,0,2.4,0.2,3.7,0.5l0.2,0c2.2,0.6,4.3,1.3,6.3,1.9c2.2,0.7,4.5,1.6,6.9,2.7c2.7,1.1,4.7,2.7,6,4.6c1.2,1.8,2,4.1,2.4,7     c0.3,1.6,0.6,3.7,1.1,6.3c0.1,0.5,0.2,0.9,0.3,1.4c1.5-6.2,3-12.1,4.4-17.4c1.1-4.1,3.4-5.8,5-6.5c1.1-0.5,2.3-0.7,3.6-0.7     c1.2,0,2.4,0.2,3.8,0.5c0.9,0.2,1.7,0.4,2.3,0.6c1,0.2,1.9,0.6,2.8,1c0.8,0.3,1.6,0.8,2.5,1.2c0.9,0.5,1.8,1.1,2.9,1.8     c2.8,1.8,4.6,4,5.1,6.5c0.4,1.9,0.2,4-0.5,6.3c-1.3,4.2-2.7,9-4.1,14.3c-1.4,5.4-2.9,10.9-4.3,16.4c-1.4,5.5-2.8,11-4,16.3     c-1.3,5.4-2.4,9.9-3.3,13.8c-0.7,4-3.9,6.6-8.2,6.6c-1,0-1.9-0.1-3-0.4c-2.9-0.6-5.8-1.4-8.8-2.4l-0.1,0     c-3.8-1.5-6.6-4.2-8.2-7.9c-0.9-1.9-1.7-4.1-2.6-6.6c-0.5-1.5-1.1-3.1-1.6-4.7c-0.6,3.2-1.1,6.1-1.6,8.8     c-0.5,2.7-0.9,5.1-1.1,7.1l0,0.2l-0.1,0.2c-0.7,3.1-2.5,4.6-3.8,5.2C508,226.7,507,226.9,505.8,226.9z"/>
			<path class="st2" d="M544.9,146.4c0.7,0,1.6,0.1,2.6,0.4c0.9,0.2,1.6,0.4,2.3,0.6c0.7,0.2,1.4,0.4,2,0.7c0.7,0.3,1.4,0.6,2.1,1     c0.7,0.4,1.6,0.9,2.6,1.6c1.7,1,2.6,2.1,2.8,3.2c0.2,1.1,0.1,2.3-0.4,3.8c-1.3,4.3-2.7,9.1-4.1,14.5c-1.4,5.4-2.9,10.9-4.3,16.5     c-1.4,5.6-2.8,11-4.1,16.4c-1.3,5.3-2.4,10-3.3,14c-0.3,1.7-1.3,2.5-3.2,2.5c-0.6,0-1.3-0.1-2-0.2c-2.6-0.5-5.4-1.3-8.1-2.2     c-2.5-1-4.3-2.7-5.4-5.2c-0.8-1.8-1.6-3.9-2.5-6.2c-0.8-2.4-1.7-4.9-2.5-7.6c-0.9-2.7-1.7-5.6-2.6-8.6c-0.9-3-1.7-5.9-2.4-8.9     c-0.6,3.6-1.3,7.1-1.9,10.7c-0.7,3.6-1.3,7-1.9,10.2c-0.6,3.3-1.2,6.3-1.6,9.1c-0.5,2.8-0.9,5.2-1.2,7.3c-0.2,1-0.6,1.6-1.1,1.9     c-0.2,0.1-0.5,0.2-0.8,0.2c-0.5,0-1.3-0.1-2.2-0.4c-1.4-0.3-2.8-0.7-4.2-1.1c-1.4-0.4-2.8-1-4.1-1.8c-1.3-0.6-2.1-1.4-2.5-2.2     c-0.4-0.8-0.6-2-0.5-3.5c0.1-1.6,0.3-3.8,0.6-6.7c0.3-2.9,0.6-6.1,1-9.8c0.4-3.7,0.9-7.6,1.5-11.7c0.5-4.2,1.1-8.3,1.8-12.5     c0.6-4.1,1.3-8.1,1.9-12c0.7-3.9,1.3-7.3,1.9-10.3c0.4-1.7,1.1-2.8,2.2-3.2c0.5-0.2,1.1-0.3,1.8-0.3c0.7,0,1.5,0.1,2.5,0.4     c2.1,0.6,4.2,1.3,6.2,1.9c2,0.6,4.1,1.5,6.3,2.5c1.8,0.7,3.1,1.7,3.8,2.8c0.7,1.1,1.3,2.8,1.6,5c0.3,1.7,0.7,3.8,1.1,6.4     c0.5,2.6,1,5.4,1.6,8.4c0.6,3,1.2,6.1,1.8,9.3c0.6,3.2,1.3,6.3,1.9,9.2c1.2-7.5,2.6-15,4.3-22.3c1.7-7.3,3.4-14,5.1-20.2     c0.5-1.7,1.2-2.7,2.1-3.1C543.7,146.5,544.2,146.4,544.9,146.4 M544.9,136.2c-2,0-3.9,0.4-5.6,1.1c-2.7,1.2-6.3,3.8-8,9.7     c-1.8-2.2-4.2-3.9-7.2-5.2c-2.5-1.2-5-2.2-7.4-2.9c-2.1-0.6-4.2-1.3-6.4-1.9l-0.2-0.1l-0.2,0c-1.8-0.5-3.4-0.7-5-0.7     c-2,0-3.9,0.4-5.7,1.1c-2.4,1-6.6,3.7-8.2,10.3l0,0.1l0,0.1c-0.7,3.1-1.3,6.7-2,10.7c-0.7,3.8-1.3,7.9-2,12.2     c-0.6,4.2-1.2,8.4-1.8,12.7c-0.6,4.3-1.1,8.3-1.5,11.9c-0.4,3.7-0.8,7.1-1.1,10.1c-0.3,2.8-0.4,5.1-0.6,6.8     c-0.3,3.4,0.3,6.4,1.6,9c1.4,2.7,3.6,4.8,6.6,6.4c2.1,1.2,4.2,2.1,6.5,2.7c1.4,0.4,2.9,0.7,4.3,1.1c1.8,0.5,3.3,0.7,4.7,0.7     c1.9,0,3.8-0.4,5.4-1.2c1.9-0.9,5.2-3.3,6.4-8.5c2.1,2.8,5,4.9,8.5,6.2l0.1,0.1l0.1,0c3.2,1.1,6.4,2,9.5,2.6     c1.4,0.3,2.8,0.5,4.1,0.5c6.7,0,12-4.3,13.2-10.7c0.9-3.9,1.9-8.3,3.2-13.7c1.3-5.3,2.7-10.8,4-16.3c1.4-5.5,2.8-11.1,4.2-16.4     c1.4-5.3,2.8-10,4-14.1c1-3.1,1.2-6.1,0.7-8.8c-0.8-4-3.2-7.3-7.4-9.9c-1.2-0.8-2.2-1.4-3.2-1.9c-1-0.5-2-1-2.9-1.4     c-1.2-0.5-2.4-0.9-3.6-1.2c-0.6-0.2-1.4-0.3-2.2-0.6l-0.1,0l-0.1,0C548.1,136.4,546.4,136.2,544.9,136.2L544.9,136.2z"/>
		</g>
		<g>
			<path class="st3" d="M573.4,227.3c-1.2,0-2.5-0.3-4-0.7c-1-0.3-2.2-0.6-3.4-1c-3.4-0.9-5.9-2.1-7.7-3.7c-1.6-1.4-3.5-4.1-3.2-8.8     c0.1-2.1,0.2-4.8,0.5-8.1c0.3-3.3,0.7-7,1.1-10.9c0.5-3.9,1-8.1,1.6-12.4c0.6-4.3,1.2-8.6,1.8-12.7c0.7-4.3,1.3-8.2,1.9-11.8     c0.6-3.7,1.3-7,1.9-9.8l0-0.2l0-0.2c1.1-4,3.4-5.6,5.1-6.3c1-0.4,2.1-0.6,3.3-0.6c1.2,0,2.5,0.2,3.9,0.6c2.1,0.5,4.3,1.3,6.6,2.3     c2.4,1,4.5,2.2,6.3,3.4c1,0.7,1.8,1.3,2.5,1.8c1.1,0.9,1.9,1.9,2.4,3c0.7,1.3,0.9,2.8,0.8,4.3c-0.1,0.9-0.3,1.9-0.6,2.9     c-0.3,1.1-0.6,2.2-0.9,3.4c1-1.1,2.1-2.2,3.1-3.3c2.6-2.9,5.1-5.7,7.5-8.3c2.3-2.6,4.1-4.8,5.6-6.5c2-2.5,4.3-3.8,6.8-3.8     c2.2,0,4.4,0.9,6.6,2.8c1.7,1.4,3,3,4.1,4.8c0.9,1.5,1.8,3.1,2.7,4.8l0.1,0.2l0.1,0.2c0.7,2,1,4.1,0.7,6.1     c-0.2,2-1.1,4.1-2.6,6.6c-1.4,2.4-3.4,5-5.7,7.9c-2.3,2.8-4.8,5.6-7.5,8.4c-2.6,2.8-5.4,5.7-8.3,8.5c-1.7,1.7-3.4,3.4-5.1,4.9     c0.5,0.7,0.9,1.4,1.4,2.2c1.3,1.9,2.6,3.8,3.9,5.6c1.3,1.8,2.5,3.4,3.7,4.9c1.1,1.4,2.1,2.6,2.9,3.5c2.9,3,2.9,5.7,2.3,7.5     c-1,2.9-3.7,4.2-4.8,4.7c-1,0.5-2.2,1-3.5,1.4c-1.1,0.3-2.3,0.6-3.4,0.7c-1.3,0.3-2.6,0.5-3.9,0.5c-0.8,0-1.6-0.1-2.4-0.2     c-2.7-0.4-5.3-1.9-7.7-4.4c-0.7-0.7-1.5-1.7-2.6-2.9c-1.1-1.2-2.4-2.7-3.7-4.3c-0.4-0.5-0.8-0.9-1.2-1.4c-0.5,2.7-1,5.3-1.4,7.6     c-0.1,2.8-1.4,4.4-2.5,5.3c-0.9,0.7-2.4,1.5-4.7,1.5C573.6,227.3,573.5,227.3,573.4,227.3z"/>
			<path class="st2" d="M616,145c1,0,2.1,0.5,3.3,1.6c1.3,1.1,2.3,2.3,3.2,3.6c0.8,1.3,1.6,2.8,2.4,4.3c0.5,1.3,0.6,2.5,0.5,3.7     c-0.1,1.2-0.8,2.7-1.9,4.5c-1.3,2.2-3.1,4.6-5.3,7.3c-2.2,2.7-4.6,5.4-7.3,8.2c-2.6,2.8-5.3,5.6-8.2,8.3c-2.8,2.8-5.5,5.4-8,7.8     c1.2,1.9,2.4,3.8,3.8,5.8c1.4,2,2.7,3.9,4,5.7c1.3,1.8,2.6,3.5,3.8,5.1c1.2,1.6,2.3,2.9,3.2,3.9c1,1,1.4,1.8,1.2,2.4     c-0.2,0.6-0.9,1.2-2.2,1.8c-0.7,0.4-1.6,0.7-2.6,1c-1,0.3-2,0.5-3,0.6c-1,0.3-1.9,0.4-2.9,0.4c-0.6,0-1.1,0-1.7-0.1     c-1.6-0.2-3.1-1.2-4.7-2.9c-0.6-0.7-1.5-1.6-2.6-2.9c-1.1-1.2-2.3-2.6-3.6-4.1c-1.3-1.6-2.6-3.2-4.1-5c-1.4-1.8-2.7-3.5-3.9-5.2     c-0.7,3.8-1.4,7.3-2,10.5c-0.6,3.2-1.1,6-1.6,8.6c0,0.9-0.2,1.5-0.6,1.8c-0.4,0.3-0.9,0.4-1.5,0.4c-0.1,0-0.1,0-0.2,0     c-0.7,0-1.7-0.2-2.7-0.5c-1.1-0.3-2.2-0.6-3.5-1c-2.6-0.7-4.5-1.6-5.6-2.6c-1.2-1-1.7-2.6-1.6-4.8c0.1-2,0.2-4.6,0.5-7.9     c0.3-3.3,0.7-6.8,1.1-10.8c0.5-3.9,1-8,1.6-12.3c0.6-4.3,1.2-8.5,1.8-12.6c0.6-4.1,1.3-8,1.9-11.7c0.6-3.7,1.2-6.9,1.8-9.6     c0.5-1.6,1.2-2.6,2.1-3c0.4-0.2,0.8-0.2,1.4-0.2c0.7,0,1.6,0.2,2.5,0.5c1.8,0.5,3.8,1.2,5.9,2.1c2.1,0.9,3.9,1.9,5.5,2.9     c0.9,0.6,1.6,1.1,2.1,1.5c0.5,0.4,0.9,0.9,1.1,1.3c0.2,0.5,0.3,1,0.3,1.5c-0.1,0.5-0.2,1.2-0.4,1.9c-0.9,2.9-1.7,6.3-2.6,10.1     c-0.9,3.8-1.8,7.9-2.8,12.4c2.4-2.6,5-5.5,7.9-8.5c2.8-3,5.6-6,8.2-8.9c2.7-2.9,5.2-5.7,7.5-8.4c2.3-2.6,4.2-4.9,5.7-6.7     C614.3,145.7,615.2,145,616,145 M616,134.8c-2.9,0-7,1-10.8,5.7c-1.4,1.7-3.2,3.9-5.4,6.3c-0.5,0.6-1,1.1-1.5,1.7     c-0.9-1.6-2-3-3.5-4.2c-0.8-0.7-1.8-1.4-2.9-2.2c-2-1.4-4.4-2.6-7-3.8c-2.5-1.1-5-2-7.3-2.6c-1.9-0.6-3.6-0.8-5.3-0.8     c-1.8,0-3.6,0.3-5.2,1c-2.7,1.1-6.3,3.7-8,9.6L559,146l-0.1,0.3c-0.6,2.8-1.2,6.2-1.9,10c-0.6,3.6-1.3,7.5-1.9,11.9     c-0.6,4.1-1.3,8.4-1.8,12.8c-0.6,4.3-1.1,8.5-1.6,12.5c-0.5,4-0.9,7.7-1.2,11c-0.3,3.4-0.5,6.2-0.6,8.4c-0.3,6.9,2.9,11,4.9,12.7     c2.4,2.2,5.6,3.7,9.8,4.9c1.2,0.3,2.3,0.6,3.3,0.9c1.9,0.6,3.6,0.9,5.2,0.9c0.2,0,0.4,0,0.6,0c3.7,0,6.3-1.4,7.8-2.6     c1.2-0.9,2.9-2.7,3.9-5.5c0.2,0.3,0.4,0.5,0.6,0.7l0,0l0,0c3.2,3.4,6.7,5.4,10.6,6c1.1,0.2,2.1,0.2,3.2,0.2     c1.6,0,3.2-0.2,4.8-0.5c1.3-0.2,2.6-0.5,3.9-0.8c1.6-0.5,3-1,4.4-1.7c3.8-1.8,6.2-4.4,7.4-7.7c0.7-2.1,1.7-7.3-3.4-12.6     c-0.7-0.8-1.6-1.9-2.6-3.2c-1.1-1.5-2.3-3.1-3.6-4.8c-1-1.3-1.9-2.7-2.9-4.1c0.7-0.7,1.3-1.3,2-2c2.9-2.9,5.8-5.8,8.5-8.6     c2.7-2.9,5.3-5.9,7.7-8.7c2.6-3.1,4.6-5.9,6.2-8.5c1.9-3.1,3-5.9,3.3-8.6c0.3-2.8,0-5.6-1-8.4l-0.2-0.5l-0.2-0.5     c-0.9-1.9-1.9-3.7-2.9-5.3c-1.4-2.2-3.1-4.2-5.1-5.9C622.9,136.2,619.5,134.8,616,134.8L616,134.8z"/>
		</g>
		<g>
			<path class="st3" d="M637.1,227.2c-0.9,0-1.9-0.1-3.1-0.4l-0.2,0c-1.5-0.4-3-0.8-4.4-1.2c-1.6-0.5-3.2-1.1-4.7-1.9     c-2.3-1.1-3.9-2.6-4.9-4.4c-0.9-1.7-1.2-3.8-0.9-6.3c0.1-2.1,0.4-4.8,0.8-8c0.4-3.3,0.9-6.8,1.4-10.6c0.6-3.9,1.2-7.9,1.9-12.1     c0.7-4.3,1.4-8.5,2.1-12.4c0.7-4,1.5-7.9,2.2-11.6c0.8-3.7,1.5-6.9,2.1-9.6l0-0.2l0.1-0.2c1-3.2,2.7-5.3,5-6.3     c1-0.4,2.1-0.6,3.3-0.6c1.2,0,2.5,0.2,4,0.6c2,0.5,4.2,1.3,6.5,2.3c2.3,1,4.4,2.2,6.2,3.4c2.6,1.7,4.1,3.4,4.8,5.2     c0.7,1.9,0.7,4,0.1,6.7l-0.1,0.2c-0.8,2.5-1.7,5.5-2.6,8.8c-0.9,3.3-1.9,6.8-2.8,10.5c-1,3.7-1.9,7.5-2.8,11.3     c-0.9,3.9-1.8,7.7-2.7,11.4c-0.9,3.7-1.7,7.2-2.4,10.5c-0.7,3.2-1.3,6.2-1.8,8.8l0,0.2l-0.1,0.2c-0.7,2.3-1.8,3.9-3.5,4.9     C639.7,226.9,638.5,227.2,637.1,227.2z"/>
			<path class="st2" d="M637.8,146.5c0.7,0,1.6,0.2,2.7,0.5c1.8,0.5,3.7,1.2,5.8,2.1c2.1,0.9,3.9,1.9,5.4,2.9c1.6,1.1,2.6,2,2.9,2.9     c0.3,0.8,0.3,2-0.1,3.5c-0.8,2.6-1.7,5.6-2.6,8.9c-1,3.3-1.9,6.9-2.9,10.6c-1,3.7-1.9,7.5-2.8,11.4c-0.9,3.9-1.8,7.7-2.7,11.4     c-0.9,3.7-1.7,7.2-2.4,10.5c-0.7,3.3-1.3,6.3-1.9,8.9c-0.3,1-0.7,1.6-1.2,1.9c-0.2,0.1-0.5,0.2-1,0.2c-0.5,0-1.2-0.1-2-0.3     c-1.5-0.4-2.9-0.8-4.3-1.2c-1.4-0.4-2.6-0.9-3.8-1.6c-1.3-0.6-2.2-1.4-2.6-2.2c-0.4-0.8-0.6-2-0.4-3.5c0.1-2,0.4-4.6,0.7-7.8     c0.4-3.2,0.8-6.7,1.4-10.5c0.5-3.8,1.2-7.8,1.9-12c0.7-4.2,1.4-8.3,2.1-12.4c0.7-4,1.5-7.8,2.2-11.4c0.7-3.6,1.4-6.8,2.1-9.5     c0.5-1.7,1.2-2.7,2.1-3.1C636.8,146.6,637.3,146.5,637.8,146.5 M637.8,136.3c-1.9,0-3.7,0.3-5.3,1c-2.6,1.1-6.1,3.6-7.9,9.5     l-0.1,0.3l-0.1,0.4c-0.7,2.8-1.3,5.9-2.1,9.7c-0.8,3.7-1.5,7.6-2.3,11.7c-0.7,3.9-1.4,8.1-2.1,12.5c-0.7,4.2-1.3,8.3-1.9,12.2     c-0.6,3.9-1,7.5-1.4,10.8c-0.4,3.2-0.6,6-0.8,8.2c-0.3,3.4,0.2,6.5,1.5,9c1.4,2.8,3.8,5,7.1,6.6c1.7,0.9,3.6,1.6,5.5,2.2     c1.4,0.4,3,0.9,4.5,1.3l0.2,0l0.2,0c1.6,0.4,3,0.5,4.3,0.5c2.3,0,4.3-0.5,6.1-1.6l0,0l0,0c1.9-1.1,4.5-3.4,5.7-7.8l0.1-0.4     l0.1-0.4c0.5-2.6,1.1-5.5,1.8-8.7c0.7-3.2,1.5-6.7,2.3-10.4c0.9-3.7,1.7-7.5,2.7-11.4c0.9-3.8,1.8-7.5,2.8-11.2     c0.9-3.6,1.9-7.1,2.8-10.3c0.9-3.3,1.8-6.2,2.6-8.7l0.1-0.2l0.1-0.2c1-3.7,0.9-6.9-0.2-9.8c-1.5-3.7-4.5-6.1-6.7-7.6l0,0l0,0     c-2-1.4-4.4-2.6-7-3.8c-2.5-1.1-5-2-7.2-2.6C641.2,136.5,639.5,136.3,637.8,136.3L637.8,136.3z"/>
		</g>
		<g>
			<path class="st3" d="M670.2,227c-1,0-1.9-0.1-2.8-0.3c-1.7-0.5-3.2-1.1-4.6-2c-1-0.6-2-1.4-3-2.1c-1-0.7-2.1-1.6-3.4-2.8     c-1.5-1.2-2.7-2.7-3.5-4.4c-1-1.9-1.4-4.2-1.2-6.6l0-0.2l8.7-61l3.3-0.8c2.5-0.6,5.3-1.3,8.4-2c3.1-0.7,6.4-1.4,9.8-2     c3.4-0.6,6.9-1.1,10.4-1.5c3.6-0.4,7.3-0.7,10.9-0.9l0.4,0c5.1,0,9,2.5,10.8,6.8c0.9,1.6,1.5,3.1,1.8,4.6     c0.3,1.1,0.6,2.4,0.9,3.9l0,0.2l0,0.2c0.2,1.1,0.7,4.6-1.6,7.2c-1.7,1.9-4.3,2.5-6.3,2.8l-0.1,0c-3.5,0.4-7,0.8-10.7,1.2     c-2.6,0.3-5.4,0.6-8.3,1c-0.5,1.6-0.9,3.2-1.4,4.8c-0.2,0.6-0.3,1.1-0.5,1.7c1.2-0.1,2.4-0.1,3.6-0.1c0.3,0,0.5,0,0.8,0     c1.9,0,3.5,0.3,4.9,0.8c2.1,0.8,3.7,2.3,5,4.5c0.9,1.4,1.5,2.9,2,4.3c0.4,1.2,0.7,2.4,1.1,3.6c1,3,0.7,5.5-0.8,7.3     c-1.5,1.8-3.8,2.5-5.9,3l-0.1,0c-3.5,0.6-7.1,1.3-10.7,1.8c-0.6,0.1-1.2,0.2-1.8,0.3c1.1-0.1,2.3-0.2,3.4-0.2     c0.5,0,1-0.1,1.4-0.1c1.7,0,3.2,0.2,4.5,0.7c2,0.8,3.6,2.2,4.8,4.2c0.9,1.4,1.5,2.8,2,4.1c0.3,0.9,0.7,1.8,1.1,2.8l0.2,0.4     l0.1,0.4c0.2,1,1,3.9-0.7,6.4c-1.4,2.2-3.9,2.9-6.1,3.3c-3.7,0.7-7.4,1.4-11.2,2.1c-3.6,0.7-7.3,1.4-10.8,2.1     C673.2,226.7,671.6,227,670.2,227z"/>
			<path class="st2" d="M703.6,145.4c3.2,0,5.2,1.3,6.1,3.8c0.7,1.4,1.3,2.6,1.6,3.8s0.6,2.3,0.9,3.7c0.2,1.5,0.1,2.5-0.3,3     c-0.5,0.5-1.5,0.9-3.2,1.1c-3.5,0.4-7,0.8-10.7,1.2c-3.7,0.4-7.6,0.9-11.7,1.5c-0.9,2.6-1.7,5.3-2.4,8.1     c-0.7,2.8-1.6,5.7-2.5,8.8c1.7-0.2,3.5-0.4,5.2-0.5c1.7-0.1,3.6-0.2,5.5-0.3c0.2,0,0.5,0,0.7,0c1.3,0,2.3,0.1,3.1,0.4     c0.9,0.3,1.7,1.1,2.3,2.2c0.7,1.2,1.2,2.3,1.6,3.4c0.4,1.1,0.7,2.3,1,3.4c0.5,1.3,0.5,2.2,0.1,2.7c-0.4,0.5-1.4,0.9-3,1.2     c-3.5,0.6-7,1.2-10.6,1.8c-3.6,0.6-7.1,1.2-10.4,1.9c-0.5,1.8-0.9,3.6-1.3,5.2c-0.4,1.6-0.8,3.3-1.3,4.9c2.7-0.5,5.3-0.8,7.7-1.1     c2.4-0.3,5.1-0.5,8-0.7c0.4,0,0.8,0,1.1,0c1.1,0,1.9,0.1,2.6,0.4c0.9,0.3,1.7,1,2.3,2.1c0.7,1.2,1.2,2.2,1.6,3.2     c0.4,1,0.8,2,1.3,3.1c0.3,1.2,0.3,1.9,0,2.4c-0.3,0.4-1.2,0.8-2.8,1.1c-3.7,0.7-7.4,1.4-11.2,2.2c-3.8,0.7-7.4,1.4-10.9,2.1     c-1.5,0.4-2.7,0.6-3.8,0.6c-0.6,0-1-0.1-1.5-0.2c-1.2-0.3-2.2-0.8-3.1-1.3c-1-0.6-1.9-1.3-2.8-1.9c-0.9-0.7-1.9-1.5-3.2-2.5     c-1-0.8-1.7-1.8-2.3-2.9c-0.5-1.1-0.8-2.4-0.6-4l8.2-57.4c2.5-0.6,5.2-1.3,8.2-2c3-0.7,6.2-1.3,9.5-1.9c3.3-0.6,6.7-1.1,10.2-1.5     c3.5-0.4,7-0.7,10.4-0.8C703.4,145.4,703.5,145.4,703.6,145.4 M703.6,135.2c-0.1,0-0.3,0-0.4,0l-0.1,0l-0.1,0     c-3.7,0.1-7.6,0.4-11.3,0.9c-3.6,0.4-7.2,1-10.7,1.6c-3.5,0.6-6.9,1.3-10,2c-3.1,0.7-5.9,1.4-8.5,2l-6.6,1.7l-1,6.8l-8.2,57.4     l0,0.3l0,0.3c-0.3,3.4,0.3,6.5,1.7,9.3c1.2,2.4,2.8,4.4,4.8,6.1c1.4,1.2,2.6,2.2,3.7,2.9c1,0.8,2.2,1.5,3.3,2.3     c1.8,1.2,3.8,2.1,6,2.7c1.3,0.3,2.7,0.5,4.1,0.5c1.8,0,3.7-0.3,5.9-0.8c3.5-0.7,7.1-1.3,10.7-2c3.9-0.8,7.6-1.5,11.1-2.1     c1.8-0.3,6.5-1.2,9.4-5.4c2-2.9,2.4-6.5,1.4-10.5l-0.2-0.9l-0.4-0.8c-0.4-0.8-0.7-1.7-1-2.5c-0.6-1.6-1.4-3.3-2.4-4.9l0,0l0,0     c-0.1-0.2-0.2-0.4-0.3-0.5c1.6-0.7,3.1-1.8,4.3-3.3c1.8-2.3,3.6-6.2,1.8-12c-0.3-1.3-0.7-2.5-1.1-3.8c-0.6-1.8-1.4-3.6-2.4-5.3     c-1.4-2.5-3.2-4.2-4.9-5.3c2.6-0.3,5.2-0.6,7.7-0.9l0.1,0l0.1,0c2.7-0.4,6.6-1.2,9.4-4.4c2.6-2.9,3.5-6.7,2.8-11.4l0-0.3     l-0.1-0.3c-0.3-1.5-0.6-2.8-0.9-4c-0.5-1.8-1.2-3.6-2.1-5.5C716.4,138.8,710.7,135.2,703.6,135.2L703.6,135.2z"/>
		</g>
		<g>
			<path class="st3" d="M738.4,227.4c-5,0-9.9-1-14.7-2.9c-4.9-2-10-5.4-15.1-10.2c-3.7-3.1-5.4-5.6-5.7-8.2     c-0.3-3.3,1.4-6.1,4.5-7.6l0.1-0.1c1.4-0.6,3-1.1,4.6-1.3c1.1-0.2,2.2-0.3,3.4-0.3c0.4,0,0.7,0,1.1,0c1.6,0.1,3.1,0.3,4.5,0.8     c0,0,0,0,0,0c-0.7-0.5-1.4-1.1-2.1-1.7c-1.9-1.5-3.6-3.3-5.1-5.2c-1.5-2-2.8-4.3-3.6-6.6c-0.9-2.4-1.4-5-1.4-7.7     c-0.1-2.6,0.3-5.4,1.2-8.3c0.6-2.4,1.6-5,3-7.6c1.4-2.6,3-5.1,4.9-7.4c1.9-2.4,3.9-4.6,6.2-6.7c2.2-2,4.5-3.8,6.8-5.3     c1-0.7,2.1-1.3,3.5-1.9c1.5-0.7,3.2-1.2,5-1.5c1.3-0.2,2.6-0.3,4-0.3c0.5,0,1,0,1.6,0c2,0.1,4.1,0.5,6.2,1.1l0.2,0.1     c2.8,1,5.7,2.3,8.5,3.7c3,1.6,5.6,3.3,7.6,5.2l0.1,0.1c1.5,1.4,2.7,2.9,3.6,4.4c0.9,1.5,1.5,3,1.9,4.5c0.3,1.4,0.5,2.8,0.6,4.2     c0,1.1,0,2.1,0,3v0.4l-0.1,0.4c-0.2,1.6-0.6,3.4-1,5.4c-0.4,2-0.9,4.1-1.5,6.1s-1.2,4-1.8,5.9c-0.7,2-1.4,3.8-2.2,5.2l-0.1,0.1     l-0.1,0.1c-1.3,2.1-2.7,3.5-4.4,4.2c-0.9,0.4-1.9,0.6-2.9,0.6c-1.1,0-2.3-0.2-3.5-0.7c0.6,0.4,1.2,0.8,1.7,1.2     c2.1,1.5,3.9,3.1,5.4,4.8c1.8,2,2.9,4.2,3.4,6.6c0.6,2.7,0.1,5.4-1.3,8.2c-0.7,1.5-1.7,3-2.9,4.7c-1.4,1.9-3.2,3.6-5.3,5.1     c-2.1,1.5-4.7,2.7-7.7,3.7c-2.9,1-6.4,1.5-10.4,1.5C739.1,227.4,738.8,227.4,738.4,227.4z M742.1,171.8c-0.3,0.5-0.6,1-0.9,1.5     c-0.6,1.1-1,2.2-1.2,3.3c-0.2,0.9-0.2,1.8,0,2.6c0.1,0.3,0.2,0.8,1,1.5l0.1,0.1c0.6,0.6,1.3,1.2,2,1.8c-1.6-2.8-1.8-5.6-1.5-8     C741.7,173.7,741.9,172.8,742.1,171.8z"/>
			<path class="st2" d="M743.7,142.6c0.4,0,0.9,0,1.3,0c1.6,0.1,3.3,0.4,5,0.9c2.6,0.9,5.2,2.1,7.8,3.5c2.6,1.4,4.8,2.9,6.6,4.5     c1.2,1.1,2,2.2,2.7,3.3c0.6,1.1,1.1,2.2,1.3,3.2c0.3,1,0.4,2.1,0.4,3.1c0,1,0,1.9,0,2.8c-0.2,1.5-0.5,3.2-1,5.1     c-0.4,1.9-0.9,3.8-1.4,5.8c-0.5,2-1.1,3.8-1.7,5.6c-0.6,1.8-1.2,3.3-1.9,4.5c-0.7,1.2-1.4,1.9-2.1,2.2c-0.2,0.1-0.5,0.2-0.8,0.2     c-0.6,0-1.4-0.2-2.4-0.6c-7.9-2.6-11.5-6.4-10.9-11.4c0.1-1,0.3-2.2,0.6-3.5c0.3-1.3,0.6-2.7,1-4c0.3-1.4,0.6-2.6,0.8-3.8     c0.2-1.2,0.3-2.2,0.2-2.9c-0.1-0.7-0.4-1.2-0.9-1.3c-0.1,0-0.2,0-0.2,0c-0.5,0-1.2,0.3-2.1,1c-1,0.5-2.1,1.3-3.2,2.4     c-1.2,1.1-2.3,2.3-3.4,3.6c-1.1,1.4-2,2.8-2.8,4.4c-0.8,1.6-1.4,3.1-1.6,4.7c-0.3,1.6-0.3,3.1,0.1,4.7c0.3,1.5,1.2,2.9,2.5,4.1     c1.7,1.6,3.5,3.1,5.6,4.5c2.1,1.4,4.1,2.8,6.2,4.1c2,1.3,4,2.6,5.8,3.9c1.8,1.3,3.3,2.6,4.5,4c1.2,1.4,1.9,2.8,2.2,4.3     c0.3,1.5,0,3.1-0.9,4.8c-0.6,1.2-1.4,2.5-2.4,3.9c-1,1.4-2.4,2.7-4.1,3.9c-1.7,1.2-3.8,2.2-6.3,3c-2.5,0.8-5.4,1.2-8.9,1.3     c-0.3,0-0.6,0-0.8,0c-4.4,0-8.6-0.8-12.8-2.5c-4.4-1.8-8.9-4.9-13.6-9.2c-2.5-2.1-3.9-3.8-4-4.9c-0.1-1.1,0.4-1.9,1.6-2.5     c1-0.5,2.1-0.8,3.3-1c0.9-0.1,1.7-0.2,2.6-0.2c0.3,0,0.6,0,0.9,0c1.2,0.1,2.3,0.2,3.3,0.6c1.1,0.3,2,0.8,2.9,1.3     c4.9,3.1,9.2,5,12.8,5.9c1.4,0.3,2.7,0.5,3.8,0.5c1.7,0,3.1-0.4,4-1.2c0.7-0.5,0.8-1,0.5-1.7c-0.4-0.7-1.1-1.4-2.2-2.3     c-1.1-0.9-2.4-1.8-4-2.9c-1.6-1-3.3-2.1-5.1-3.2c-1.8-1.1-3.6-2.2-5.4-3.4c-1.8-1.2-3.4-2.4-4.8-3.6c-1.6-1.3-3-2.7-4.3-4.4     c-1.2-1.6-2.2-3.4-2.9-5.3c-0.7-1.9-1.1-3.9-1.1-6c-0.1-2.1,0.3-4.4,1-6.7c0.5-2.1,1.4-4.3,2.6-6.6c1.2-2.3,2.7-4.5,4.4-6.7     c1.7-2.2,3.6-4.2,5.6-6c2-1.9,4.1-3.5,6.3-4.8c0.7-0.5,1.6-1,2.7-1.5c1.1-0.5,2.3-0.8,3.7-1.1     C741.5,142.7,742.6,142.6,743.7,142.6 M743.7,132.4c-1.7,0-3.3,0.1-4.9,0.4c-2.2,0.4-4.3,1-6.2,1.8c-1.6,0.7-3,1.5-4.2,2.4     c-2.5,1.6-5,3.5-7.4,5.7c-2.4,2.2-4.7,4.7-6.7,7.3c-2.1,2.6-3.9,5.4-5.4,8.2c-1.6,2.9-2.7,5.8-3.5,8.6c-1,3.3-1.5,6.6-1.4,9.8     c0.1,3.2,0.7,6.3,1.7,9.3c0.9,2.4,2,4.6,3.4,6.7c-1.2,0.3-2.4,0.7-3.5,1.2l-0.1,0.1l-0.1,0.1c-5.1,2.4-8,7.3-7.4,12.8     c0.5,5,4.1,8.8,7.3,11.5c5.5,5.1,11.1,8.8,16.6,11.1c5.3,2.2,10.9,3.3,16.6,3.3c0.3,0,0.7,0,1,0c4.5-0.1,8.4-0.7,11.8-1.8     c3.4-1.1,6.5-2.6,9-4.4c2.6-1.8,4.8-3.9,6.5-6.3c1.4-1.9,2.5-3.6,3.3-5.4c2.5-4.8,2.3-8.9,1.8-11.5c-0.6-3-2-5.9-4.2-8.4     c1.5-1.2,2.8-2.7,3.9-4.6l0.2-0.3l0.1-0.3c0.9-1.7,1.7-3.6,2.5-5.9c0.7-1.9,1.3-4,1.9-6.1c0.6-2.2,1.1-4.3,1.6-6.4     c0.4-2.1,0.8-4,1.1-5.7l0.1-0.8v-0.8c0-0.9,0-1.9,0-3.1c-0.1-1.8-0.3-3.5-0.7-5.3c-0.5-2-1.3-3.9-2.4-5.8     c-1.1-1.9-2.6-3.8-4.5-5.6l-0.1-0.1l-0.1-0.1c-2.4-2.2-5.3-4.2-8.7-5.9c-3-1.6-6.1-3-9.2-4l-0.2-0.1l-0.2-0.1     c-2.5-0.7-5-1.2-7.4-1.3C744.9,132.4,744.3,132.4,743.7,132.4L743.7,132.4z"/>
		</g>
		<g>
			<path class="st0" d="M780.3,227.8c-1.7,0-3.4-0.3-4.9-0.8c-1.8-0.6-3.3-1.5-4.7-2.6c-1.5-1.2-2.6-2.8-3.4-4.6     c-0.8-1.8-1.1-3.7-1-5.8c0.1-2.1,0.7-4,1.8-5.8c1-1.7,2.3-3.1,4-4.3c1.7-1.2,3.6-1.9,5.8-2.3c0.8-0.1,1.5-0.2,2.3-0.2     c1.5,0,3,0.2,4.6,0.6l0.1,0l0.1,0c3.3,1.1,5.9,2.7,7.6,4.9c1.8,2.3,2.7,4.8,2.6,7.3c0,1.3-0.2,2.7-0.7,4c-0.3,1-0.8,2-1.5,3     c-0.8,1.1-1.7,2.2-2.9,3.1c-1.1,0.9-2.4,1.7-3.9,2.3c-1.6,0.7-3.4,1-5.3,1C780.7,227.8,780.5,227.8,780.3,227.8z"/>
			<path class="st2" d="M780.2,206.6c1,0,2.2,0.2,3.3,0.5c2.4,0.7,4.1,1.8,5.1,3.2c1.1,1.4,1.6,2.7,1.5,4c0,0.8-0.1,1.6-0.4,2.5     c-0.2,0.5-0.5,1.1-1,1.8c-0.5,0.7-1.1,1.3-1.8,1.9c-0.7,0.6-1.6,1.1-2.7,1.6c-1,0.4-2.2,0.6-3.5,0.6c-0.2,0-0.3,0-0.5,0     c-1.1,0-2.2-0.2-3.3-0.5c-1.2-0.4-2.2-1-3.1-1.7c-0.9-0.7-1.5-1.6-2-2.7c-0.5-1.1-0.7-2.3-0.6-3.6c0.1-1.2,0.4-2.3,1-3.4     c0.6-1.1,1.5-2,2.5-2.7c1-0.7,2.3-1.2,3.7-1.4C779.1,206.6,779.6,206.6,780.2,206.6 M780.2,196.4c-1.1,0-2.1,0.1-3.1,0.2     c-3,0.5-5.6,1.5-7.9,3.1c-2.2,1.6-4.1,3.5-5.5,5.8c-1.5,2.5-2.3,5.3-2.5,8.1l0,0l0,0c-0.1,2.9,0.4,5.6,1.4,8.1     c1.1,2.6,2.7,4.7,4.8,6.5c1.8,1.5,3.9,2.7,6.3,3.5c2.1,0.7,4.3,1.1,6.6,1.1c0.2,0,0.5,0,0.7,0c2.5,0,4.9-0.5,7.2-1.4     c1.9-0.8,3.7-1.8,5.2-3c1.5-1.3,2.9-2.7,3.9-4.2c1-1.5,1.7-2.9,2.1-4.2c0.6-1.9,0.9-3.7,1-5.5c0.1-2.6-0.5-6.5-3.7-10.5     c-2.4-3-5.7-5.2-10.1-6.6l-0.3-0.1l-0.3-0.1C784,196.6,782.1,196.4,780.2,196.4L780.2,196.4z"/>
		</g>
		<g>
			<path class="st0" d="M903.8,228.2c-1.3,0-2.7-0.2-4.3-0.6l-0.1,0c-2-0.6-4-1.2-5.8-1.8c-1.9-0.6-3.9-1.5-6-2.5     c-2.9-1.4-5.3-3.3-6.9-5.7c-1.5-2.2-2.4-4.2-2.9-6.2c-2-8-3.9-17.1-5.5-27.1c-1.6-9.9-3-20.9-4.3-32.8l0-0.2     c-0.2-2.7,0.1-4.7,1.1-6.2c1.4-2.3,3.9-3.5,7.5-3.5c1.9,0,3.8,0.1,5.4,0.4c1.8,0.3,3.6,0.8,5.5,1.6c5.5,2,8.9,6.2,9.7,11.7     c0.4,2.9,0.7,6.1,1.2,9.7c0.4,3.6,0.9,7.4,1.3,11.3c0.3,2.2,0.5,4.5,0.8,6.8c1.3-3.1,2.5-6.2,3.7-9.4c3.5-9.1,7.2-18.4,10.9-27.6     l0.1-0.2c1-2.1,2.4-3.7,4.2-4.6c1.3-0.6,2.6-0.9,4.1-0.9c0.5,0,1,0,1.5,0.1c1.4,0.2,2.9,0.7,4.4,1.4c1.2,0.6,2.5,1.2,3.7,2     c1.3,0.7,2.4,1.4,3.5,2.2c1.4,1,2.6,2.2,3.5,3.6c1,1.6,1.6,3.4,1.6,5.3c0,1.6-0.3,3.4-1,5.3c-0.8,2.6-1.9,5.6-3.3,9     c-1.4,3.4-2.9,7-4.5,10.8c-1.6,3.8-3.4,7.8-5.1,11.7c-1.8,4-3.6,7.9-5.4,11.7c-1.7,3.7-3.5,7.2-5.1,10.6     c-1.6,3.3-3.1,6.2-4.4,8.6l-0.1,0.2c-1.4,2.5-3.3,4.1-5.6,4.9C906.1,228,905,228.2,903.8,228.2z"/>
			<path class="st2" d="M923.4,145.5c0.2,0,0.5,0,0.8,0.1c1,0.1,2,0.5,3,1c1.1,0.5,2.1,1.1,3.2,1.8c1.2,0.6,2.2,1.3,3.1,1.9     c0.9,0.7,1.6,1.4,2.2,2.2c0.5,0.8,0.8,1.7,0.8,2.7c0,1-0.2,2.1-0.7,3.4c-0.8,2.5-1.9,5.5-3.2,8.8c-1.3,3.3-2.8,6.9-4.4,10.7     c-1.6,3.8-3.3,7.6-5.1,11.6c-1.8,4-3.6,7.8-5.4,11.6c-1.8,3.7-3.5,7.3-5.1,10.5c-1.6,3.3-3.1,6.1-4.3,8.5     c-0.8,1.4-1.8,2.3-2.8,2.6c-0.5,0.2-1,0.2-1.6,0.2c-0.9,0-1.9-0.2-3-0.5c-2-0.6-3.9-1.2-5.6-1.7c-1.7-0.6-3.5-1.3-5.4-2.2     c-2.1-1-3.8-2.3-4.9-3.9c-1.1-1.6-1.9-3.2-2.2-4.5c-2-7.9-3.8-16.8-5.4-26.6c-1.6-9.9-3-20.7-4.3-32.5c-0.1-1.6,0-2.6,0.4-3.3     c0.4-0.6,1.4-1,3.2-1c1.7,0,3.2,0.1,4.6,0.3c1.4,0.2,2.9,0.7,4.4,1.3c3.8,1.4,6,3.9,6.5,7.6c0.3,2.8,0.7,6,1.2,9.6     c0.4,3.6,0.9,7.3,1.3,11.3c0.5,4,1,8.1,1.5,12.4c0.5,4.3,1.1,8.5,1.8,12.7c3.8-8.3,7.5-17.2,11.1-26.4     c3.6-9.3,7.2-18.5,10.8-27.6c0.5-1,1.1-1.7,1.8-2.1C922.1,145.7,922.7,145.5,923.4,145.5 M923.4,135.3c-2.2,0-4.4,0.5-6.3,1.5     c-2,1-4.8,3.1-6.6,7.1l-0.1,0.2l-0.1,0.2c-2.4,6.1-4.8,12.1-7.2,18.2c-0.3-2.8-0.7-5.4-0.9-7.7l0-0.1l0-0.1     c-1-7.4-5.6-13-12.9-15.7c-2.2-0.9-4.4-1.5-6.5-1.8c-2-0.3-4.1-0.5-6.3-0.5c-6.9,0-10.3,3.2-11.9,5.9c-1.5,2.5-2.1,5.5-1.8,9.2     l0,0.2l0,0.2c1.3,12,2.7,23.1,4.3,33c1.6,10.1,3.5,19.4,5.6,27.6c0.6,2.5,1.8,5.1,3.7,7.8c2.2,3.1,5.2,5.6,8.9,7.4     c2.3,1.1,4.5,2,6.6,2.7c1.9,0.6,3.9,1.2,6,1.9l0.1,0l0.1,0c2,0.5,3.9,0.8,5.6,0.8c1.7,0,3.4-0.3,4.9-0.8c2.4-0.8,5.8-2.7,8.4-7.1     l0.1-0.2l0.1-0.2c1.3-2.5,2.8-5.4,4.5-8.8c1.7-3.4,3.4-7,5.1-10.6c1.8-3.8,3.6-7.7,5.5-11.8c1.8-4,3.5-7.9,5.2-11.8     c1.6-3.8,3.2-7.5,4.5-10.9c1.3-3.4,2.5-6.5,3.3-9.1c0.9-2.4,1.4-4.8,1.3-7.1c-0.1-2.8-0.9-5.6-2.4-7.9c-1.2-1.9-2.8-3.6-4.8-5     c-1.2-0.9-2.5-1.7-3.9-2.5c-1.4-0.9-2.8-1.6-4.2-2.3c-1.9-0.9-3.9-1.5-5.8-1.8C924.9,135.4,924.1,135.3,923.4,135.3L923.4,135.3z     "/>
		</g>
		<g>
			<path class="st0" d="M835.6,229.5c-1.2,0-2.4-0.3-3.8-0.7c-1-0.3-2.1-0.6-3.2-0.9c-1.4-0.4-2.7-0.8-3.8-1.3     c-1.5-0.6-2.8-1.4-3.9-2.3c-1.3-1.1-2.3-2.5-2.9-4.1c-0.6-1.6-0.7-3.3-0.4-5.2c0.2-2.8,0.5-6.2,1-10.2c0.5-4.1,1.2-8.5,1.9-12.9     c0.7-4.5,1.5-9.1,2.4-13.7c0.4-1.9,0.7-3.8,1.1-5.6c-0.3,0.1-0.6,0.1-0.8,0.2l-0.2,0c-1.2,0.3-2.3,0.4-3.4,0.4     c-1,0-1.9-0.1-2.7-0.4c-1.8-0.5-3.6-1.7-5.4-3.6c-1.5-1.5-2.9-3.5-4.2-5.7c-1-1.9-1.9-3.5-2.5-4.8c-1.7-3.2-1.7-6,0.1-8.1     c1.4-1.8,3.4-2.5,4.8-2.8l0.1,0l0.1,0c3.5-0.7,7.5-1.4,11.9-2c4.3-0.6,8.8-1.1,13.3-1.6c4.5-0.5,9-0.9,13.3-1.2     c4.3-0.3,8.3-0.5,11.7-0.7l0.2,0c2.5,0,4.3,0.3,5.8,0.8c1.6,0.6,2.9,1.7,4.1,3.1c1.4,1.6,2.6,3.4,3.5,5.3     c0.9,1.8,1.6,3.7,2.1,5.5c0.3,1.1,1.1,4.2-0.6,6.8c-1.6,2.5-4.6,3.1-7,3.2c-2.2,0.2-4.7,0.5-7.3,0.7c-1.5,0.1-3.1,0.3-4.6,0.5     l-2.9,11.5c-1.3,5.2-2.6,10.4-3.7,15.4c-1.2,5.1-2.3,10-3.4,14.8c-1,4.7-2,9.2-2.8,13.3c-0.5,2.9-2,4.4-3.2,5.1     c-1.2,0.7-2.6,1.1-4.2,1.1C835.9,229.5,835.7,229.5,835.6,229.5z"/>
			<path class="st2" d="M860.3,147.4c1.8,0,3.1,0.2,3.8,0.5c0.8,0.3,1.5,0.9,2,1.6c1.2,1.3,2.1,2.8,2.8,4.3c0.7,1.6,1.3,3.1,1.7,4.6     c0.3,1.3,0.4,2.2,0,2.7c-0.3,0.5-1.4,0.8-3.2,0.9c-2.2,0.2-4.7,0.5-7.3,0.7c-2.6,0.3-5.4,0.5-8.2,0.8c-1.2,4.8-2.5,9.8-3.8,15     c-1.3,5.2-2.5,10.3-3.8,15.4c-1.2,5.1-2.3,10.1-3.4,14.9c-1.1,4.8-2,9.4-2.8,13.6c-0.1,0.8-0.4,1.3-0.8,1.6     c-0.4,0.2-0.9,0.3-1.6,0.3c-0.1,0-0.1,0-0.2,0c-0.7,0-1.6-0.2-2.6-0.5c-1-0.3-2.1-0.6-3.3-1c-1.2-0.3-2.3-0.7-3.3-1.1     c-1-0.4-1.8-0.9-2.5-1.5c-0.7-0.6-1.1-1.3-1.4-2c-0.3-0.8-0.3-1.7-0.1-2.8c0.2-2.8,0.5-6.2,1-10.2c0.5-4,1.1-8.3,1.9-12.8     c0.7-4.5,1.5-9,2.4-13.6s1.7-8.8,2.6-12.7c-1.7,0.3-3.3,0.5-4.8,0.7c-1.6,0.2-2.9,0.4-3.9,0.7c-0.8,0.2-1.6,0.3-2.2,0.3     c-0.5,0-0.9-0.1-1.3-0.2c-0.9-0.3-2-1-3.1-2.2c-1.2-1.2-2.3-2.7-3.3-4.6c-1-1.8-1.8-3.4-2.5-4.7c-0.7-1.3-0.9-2.2-0.5-2.6     c0.3-0.4,1.1-0.8,2.2-1.1c3.4-0.7,7.2-1.3,11.5-1.9c4.3-0.6,8.7-1.1,13.1-1.6c4.5-0.5,8.8-0.8,13.1-1.2     C853.1,147.7,856.9,147.5,860.3,147.4 M860.3,137.2h-0.2l-0.2,0c-3.5,0.1-7.5,0.3-11.9,0.7c-4.4,0.3-8.9,0.7-13.4,1.2     c-4.5,0.5-9.1,1-13.4,1.6c-4.5,0.6-8.6,1.3-12.2,2l-0.3,0.1l-0.3,0.1c-3.3,0.9-5.8,2.4-7.5,4.6c-1.7,2.2-4.1,6.8-0.6,13.7     c0.7,1.4,1.5,3,2.6,4.9c1.4,2.6,3.1,4.9,5,6.8c2.4,2.5,4.9,4.1,7.7,4.9c0.7,0.2,1.5,0.3,2.2,0.4c-0.8,4.3-1.6,8.7-2.2,12.9     c-0.7,4.5-1.4,8.9-1.9,13.1c-0.5,4-0.9,7.4-1.1,10.2c-0.4,2.7-0.2,5.2,0.7,7.6c0.9,2.4,2.3,4.5,4.3,6.2c1.5,1.3,3.3,2.4,5.3,3.2     c1.3,0.5,2.8,1,4.4,1.5c1.2,0.3,2.2,0.6,3.2,0.9c1.8,0.5,3.5,0.8,5.1,0.9c0.2,0,0.4,0,0.6,0c2.5,0,4.8-0.6,6.8-1.8     c1.8-1.1,4.8-3.6,5.6-8.6c0.8-4.1,1.7-8.5,2.7-13.1c1-4.7,2.2-9.7,3.4-14.7c1.2-5,2.4-10.1,3.7-15.3c0.7-2.7,1.4-5.4,2-8.1     c0.3,0,0.7-0.1,1-0.1c2.6-0.3,5-0.5,7.2-0.7c2.1-0.1,7.7-0.6,10.9-5.5c1.9-3,2.4-6.6,1.3-10.8l0,0l0,0c-0.6-2.1-1.4-4.2-2.4-6.4     c-1.1-2.3-2.5-4.4-4.2-6.4c-1.7-2.1-3.7-3.6-6.1-4.6C866,137.6,863.5,137.2,860.3,137.2L860.3,137.2z"/>
		</g>
	</g>
</g>
</svg>